<svg width="24" height="24" viewBox="0 0 24 24" fill="none" xmlns="http://www.w3.org/2000/svg">
<path d="M17.99 1.59601C16.9813 1.489 15.9675 1.43692 14.953 1.44001C11.59 1.44001 9.50005 3.58201 9.50005 7.03001V9.37101H6.67505C6.54244 9.37101 6.41526 9.42369 6.3215 9.51746C6.22773 9.61122 6.17505 9.7384 6.17505 9.87101V13.721C6.17505 13.8536 6.22773 13.9808 6.3215 14.0746C6.41526 14.1683 6.54244 14.221 6.67505 14.221H9.50005V21.941C9.50005 22.0736 9.55273 22.2008 9.64649 22.2946C9.74026 22.3883 9.86744 22.441 10 22.441H13.978C14.1107 22.441 14.2378 22.3883 14.3316 22.2946C14.4254 22.2008 14.478 22.0736 14.478 21.941V14.221H17.294C17.4154 14.2211 17.5327 14.177 17.624 14.0969C17.7152 14.0169 17.7743 13.9064 17.79 13.786L18.287 9.93601C18.2963 9.86544 18.2904 9.79371 18.2697 9.72562C18.249 9.65752 18.214 9.59463 18.167 9.54115C18.1201 9.48766 18.0623 9.44482 17.9974 9.41548C17.9326 9.38613 17.8622 9.37098 17.791 9.37101H14.478V7.41201C14.478 6.44201 14.673 6.03701 15.886 6.03701H17.925C18.0577 6.03701 18.1848 5.98433 18.2786 5.89056C18.3724 5.7968 18.425 5.66962 18.425 5.53701V2.09201C18.4251 1.97062 18.381 1.85335 18.301 1.76209C18.2209 1.67082 18.1104 1.61179 17.99 1.59601ZM17.425 5.03601L15.885 5.03701C13.728 5.03701 13.478 6.39301 13.478 7.41201V9.87201C13.478 10.0044 13.5306 10.1315 13.6241 10.2252C13.7177 10.3189 13.8446 10.3717 13.977 10.372H17.223L16.854 13.222H13.978C13.8454 13.222 13.7183 13.2747 13.6245 13.3685C13.5307 13.4622 13.478 13.5894 13.478 13.722V21.44H10.5V13.722C10.5 13.5894 10.4474 13.4622 10.3536 13.3685C10.2598 13.2747 10.1327 13.222 10 13.222H7.17605V10.372H10C10.1327 10.372 10.2598 10.3193 10.3536 10.2256C10.4474 10.1318 10.5 10.0046 10.5 9.87201V7.03001C10.5 4.15601 12.165 2.44001 14.953 2.44001C15.962 2.44001 16.873 2.49501 17.425 2.54301V5.03601Z" fill="white"/>
</svg>
