<svg width="50" height="50" viewBox="0 0 50 50" fill="none" xmlns="http://www.w3.org/2000/svg">
<path d="M25 16.4062C23.3003 16.4062 21.6388 16.9103 20.2256 17.8546C18.8123 18.7989 17.7109 20.141 17.0604 21.7113C16.41 23.2816 16.2398 25.0095 16.5714 26.6766C16.903 28.3436 17.7214 29.8748 18.9233 31.0767C20.1252 32.2786 21.6564 33.097 23.3234 33.4286C24.9905 33.7602 26.7184 33.59 28.2887 32.9396C29.859 32.2891 31.2011 31.1877 32.1454 29.7744C33.0897 28.3612 33.5938 26.6997 33.5938 25C33.5938 22.7208 32.6883 20.5349 31.0767 18.9233C29.4651 17.3117 27.2792 16.4062 25 16.4062ZM25 32.0312C23.6094 32.0312 22.2499 31.6189 21.0936 30.8463C19.9374 30.0737 19.0362 28.9755 18.504 27.6907C17.9718 26.4059 17.8326 24.9922 18.1039 23.6283C18.3752 22.2643 19.0448 21.0115 20.0282 20.0282C21.0115 19.0448 22.2643 18.3752 23.6283 18.1039C24.9922 17.8326 26.4059 17.9718 27.6907 18.504C28.9755 19.0362 30.0737 19.9374 30.8463 21.0936C31.6189 22.2499 32.0312 23.6094 32.0312 25C32.0312 26.8648 31.2905 28.6532 29.9718 29.9718C28.6532 31.2905 26.8648 32.0312 25 32.0312ZM33.5938 6.25H16.4062C13.7126 6.25 11.1294 7.32003 9.2247 9.2247C7.32003 11.1294 6.25 13.7126 6.25 16.4062V33.5938C6.25 34.9275 6.5127 36.2482 7.0231 37.4804C7.5335 38.7126 8.2816 39.8322 9.2247 40.7753C11.1294 42.68 13.7126 43.75 16.4062 43.75H33.5938C34.9275 43.75 36.2482 43.4873 37.4804 42.9769C38.7126 42.4665 39.8322 41.7184 40.7753 40.7753C41.7184 39.8322 42.4665 38.7126 42.9769 37.4804C43.4873 36.2482 43.75 34.9275 43.75 33.5938V16.4062C43.75 15.0725 43.4873 13.7518 42.9769 12.5196C42.4665 11.2874 41.7184 10.1678 40.7753 9.2247C39.8322 8.2816 38.7126 7.5335 37.4804 7.0231C36.2482 6.5127 34.9275 6.25 33.5938 6.25ZM42.1875 33.5938C42.1875 35.873 41.2821 38.0588 39.6704 39.6704C38.0588 41.2821 35.873 42.1875 33.5938 42.1875H16.4062C14.127 42.1875 11.9412 41.2821 10.3296 39.6704C8.71791 38.0588 7.8125 35.873 7.8125 33.5938V16.4062C7.8125 14.127 8.71791 11.9412 10.3296 10.3296C11.9412 8.71791 14.127 7.8125 16.4062 7.8125H33.5938C35.873 7.8125 38.0588 8.71791 39.6704 10.3296C41.2821 11.9412 42.1875 14.127 42.1875 16.4062V33.5938ZM36.7188 14.8438C36.7188 15.1528 36.6271 15.4549 36.4554 15.7118C36.2837 15.9688 36.0397 16.169 35.7542 16.2873C35.4687 16.4056 35.1545 16.4365 34.8514 16.3762C34.5483 16.3159 34.2699 16.1671 34.0514 15.9486C33.8329 15.7301 33.6841 15.4517 33.6238 15.1486C33.5635 14.8455 33.5944 14.5313 33.7127 14.2458C33.831 13.9603 34.0312 13.7163 34.2882 13.5446C34.5451 13.3729 34.8472 13.2812 35.1562 13.2812C35.5707 13.2812 35.9681 13.4459 36.2611 13.7389C36.5541 14.0319 36.7188 14.4293 36.7188 14.8438Z" fill="white"/>
</svg>
