<svg width="50" height="50" viewBox="0 0 50 50" fill="none" xmlns="http://www.w3.org/2000/svg">
<path d="M18.75 15.625C18.75 15.934 18.6584 16.2361 18.4867 16.4931C18.315 16.75 18.071 16.9503 17.7854 17.0686C17.4999 17.1868 17.1858 17.2178 16.8827 17.1575C16.5796 17.0972 16.3012 16.9484 16.0826 16.7299C15.8641 16.5113 15.7153 16.2329 15.655 15.9298C15.5947 15.6267 15.6257 15.3126 15.7439 15.0271C15.8622 14.7415 16.0625 14.4975 16.3194 14.3258C16.5764 14.1541 16.8785 14.0625 17.1875 14.0625C17.6019 14.0625 17.9993 14.2271 18.2924 14.5201C18.5854 14.8132 18.75 15.2106 18.75 15.625ZM17.1875 21.0938C16.9803 21.0938 16.7816 21.1761 16.6351 21.3226C16.4886 21.4691 16.4062 21.6678 16.4062 21.875V34.375C16.4062 34.5822 16.4886 34.7809 16.6351 34.9274C16.7816 35.0739 16.9803 35.1562 17.1875 35.1562C17.3947 35.1562 17.5934 35.0739 17.7399 34.9274C17.8864 34.7809 17.9688 34.5822 17.9688 34.375V21.875C17.9688 21.6678 17.8864 21.4691 17.7399 21.3226C17.5934 21.1761 17.3947 21.0938 17.1875 21.0938ZM28.9062 21.0938C28.0181 21.0928 27.1402 21.2824 26.3315 21.6496C25.5229 22.0169 24.8024 22.5533 24.2188 23.2227V21.875C24.2188 21.6678 24.1364 21.4691 23.9899 21.3226C23.8434 21.1761 23.6447 21.0938 23.4375 21.0938C23.2303 21.0938 23.0316 21.1761 22.8851 21.3226C22.7386 21.4691 22.6562 21.6678 22.6562 21.875V34.375C22.6562 34.5822 22.7386 34.7809 22.8851 34.9274C23.0316 35.0739 23.2303 35.1562 23.4375 35.1562C23.6447 35.1562 23.8434 35.0739 23.9899 34.9274C24.1364 34.7809 24.2188 34.5822 24.2188 34.375V27.3438C24.2188 26.1005 24.7126 24.9083 25.5917 24.0292C26.4708 23.1501 27.663 22.6563 28.9062 22.6562C30.1495 22.6562 31.3417 23.1501 32.2208 24.0292C33.0999 24.9083 33.5938 26.1005 33.5938 27.3438V34.375C33.5938 34.5822 33.6761 34.7809 33.8226 34.9274C33.9691 35.0739 34.1678 35.1562 34.375 35.1562C34.5822 35.1562 34.7809 35.0739 34.9274 34.9274C35.0739 34.7809 35.1562 34.5822 35.1562 34.375V27.3438C35.1511 25.6877 34.491 24.101 33.32 22.93C32.149 21.759 30.5623 21.0989 28.9062 21.0938ZM43.75 8.59375V41.4062C43.75 42.0279 43.5031 42.624 43.0635 43.0635C42.624 43.5031 42.0279 43.75 41.4062 43.75H8.59375C7.97215 43.75 7.37601 43.5031 6.93647 43.0635C6.49693 42.624 6.25 42.0279 6.25 41.4062V8.59375C6.25 7.97215 6.49693 7.37601 6.93647 6.93647C7.37601 6.49693 7.97215 6.25 8.59375 6.25H41.4062C42.0279 6.25 42.624 6.49693 43.0635 6.93647C43.5031 7.37601 43.75 7.97215 43.75 8.59375ZM42.1875 8.59375C42.1875 8.38655 42.1052 8.18784 41.9587 8.04132C41.8122 7.89481 41.6135 7.8125 41.4062 7.8125H8.59375C8.38655 7.8125 8.18784 7.89481 8.04132 8.04132C7.89481 8.18784 7.8125 8.38655 7.8125 8.59375V41.4062C7.8125 41.6135 7.89481 41.8122 8.04132 41.9587C8.18784 42.1052 8.38655 42.1875 8.59375 42.1875H41.4062C41.6135 42.1875 41.8122 42.1052 41.9587 41.9587C42.1052 41.8122 42.1875 41.6135 42.1875 41.4062V8.59375Z" fill="white"/>
</svg>
