<svg width="24" height="24" viewBox="0 0 24 24" fill="none" xmlns="http://www.w3.org/2000/svg">
<path d="M7.49996 8.99997H3.49996C3.36735 8.99997 3.24018 9.05265 3.14641 9.14642C3.05264 9.24019 2.99996 9.36737 2.99996 9.49997V21.5C2.99996 21.6326 3.05264 21.7598 3.14641 21.8535C3.24018 21.9473 3.36735 22 3.49996 22H7.49996C7.63257 22 7.75975 21.9473 7.85352 21.8535C7.94728 21.7598 7.99996 21.6326 7.99996 21.5V9.49997C7.99996 9.36737 7.94728 9.24019 7.85352 9.14642C7.75975 9.05265 7.63257 8.99997 7.49996 8.99997ZM6.99996 21H3.99996V9.99997H6.99996V21ZM18 8.99997C16.915 8.99997 15.86 9.35797 15 10.019V9.49997C15 9.36737 14.9473 9.24019 14.8535 9.14642C14.7597 9.05265 14.6326 8.99997 14.5 8.99997H10.5C10.3674 8.99997 10.2402 9.05265 10.1464 9.14642C10.0526 9.24019 9.99996 9.36737 9.99996 9.49997V21.5C9.99996 21.6326 10.0526 21.7598 10.1464 21.8535C10.2402 21.9473 10.3674 22 10.5 22H14.5C14.6326 22 14.7597 21.9473 14.8535 21.8535C14.9473 21.7598 15 21.6326 15 21.5V16C15 15.6021 15.158 15.2206 15.4393 14.9393C15.7206 14.658 16.1021 14.5 16.5 14.5C16.8978 14.5 17.2793 14.658 17.5606 14.9393C17.8419 15.2206 18 15.6021 18 16V21.5C18 21.6326 18.0526 21.7598 18.1464 21.8535C18.2402 21.9473 18.3674 22 18.5 22H22.5C22.6326 22 22.7597 21.9473 22.8535 21.8535C22.9473 21.7598 23 21.6326 23 21.5V14C22.9984 12.6744 22.4711 11.4035 21.5337 10.4662C20.5964 9.52886 19.3256 9.00156 18 8.99997ZM22 21H19V16C19 15.3369 18.7366 14.701 18.2677 14.2322C17.7989 13.7634 17.163 13.5 16.5 13.5C15.8369 13.5 15.201 13.7634 14.7322 14.2322C14.2634 14.701 14 15.3369 14 16V21H11V9.99997H14V11.203C13.9999 11.3065 14.0321 11.4075 14.0919 11.4921C14.1518 11.5766 14.2364 11.6404 14.3341 11.6748C14.4318 11.7091 14.5377 11.7123 14.6373 11.6839C14.7369 11.6554 14.8252 11.5967 14.89 11.516C15.4035 10.865 16.1073 10.3906 16.9034 10.1588C17.6994 9.92698 18.548 9.94936 19.3307 10.2228C20.1134 10.4963 20.7912 11.0072 21.2697 11.6842C21.7482 12.3613 22.0035 13.1709 22 14V21ZM5.86796 2.00197C5.75046 1.99369 5.63255 1.99302 5.51496 1.99997C5.14073 1.97451 4.76526 2.02616 4.4118 2.15171C4.05834 2.27727 3.73442 2.47406 3.46011 2.7299C3.18581 2.98574 2.96695 3.29518 2.8171 3.63904C2.66725 3.98291 2.5896 4.35388 2.58896 4.72897C2.58586 5.10015 2.65904 5.46801 2.80396 5.80974C2.94889 6.15147 3.16248 6.45978 3.43147 6.71556C3.70047 6.97134 4.01915 7.16913 4.36774 7.29666C4.71633 7.4242 5.08741 7.47876 5.45796 7.45697H5.48596C5.84414 7.48206 6.20376 7.43634 6.54427 7.32245C6.88478 7.20855 7.19953 7.0287 7.47054 6.79316C7.74155 6.55763 7.96351 6.27102 8.12375 5.9497C8.28399 5.62839 8.37938 5.27865 8.40446 4.92047C8.42954 4.56229 8.38383 4.20268 8.26994 3.86217C8.15604 3.52165 7.97619 3.2069 7.74065 2.9359C7.50512 2.66489 7.21851 2.44293 6.89719 2.28268C6.57588 2.12244 6.22614 2.02706 5.86796 2.00197ZM5.83296 6.45997C5.71748 6.47047 5.60124 6.46947 5.48596 6.45697H5.45796C5.21729 6.47507 4.97549 6.44277 4.748 6.36216C4.52051 6.28155 4.31233 6.15439 4.13675 5.9888C3.96116 5.8232 3.82204 5.62282 3.72825 5.40044C3.63447 5.17805 3.58809 4.93856 3.59206 4.69724C3.59604 4.45592 3.6503 4.21808 3.75136 3.99891C3.85243 3.77974 3.99808 3.58405 4.17903 3.42434C4.35998 3.26462 4.57224 3.14439 4.80226 3.07133C5.03228 2.99826 5.27502 2.97396 5.51496 2.99997C5.97379 2.9578 6.43057 3.09963 6.78483 3.39425C7.13908 3.68887 7.36179 4.11215 7.40396 4.57097C7.44613 5.0298 7.30431 5.48658 7.00969 5.84084C6.71507 6.19509 6.29179 6.4178 5.83296 6.45997Z" fill="white"/>
</svg>
