<svg width="50" height="50" viewBox="0 0 50 50" fill="none" xmlns="http://www.w3.org/2000/svg">
<path d="M47.5977 13.7696C47.5394 13.6256 47.4396 13.5022 47.3108 13.4153C47.1821 13.3283 47.0304 13.2817 46.875 13.2813H40.4688C39.7578 11.8878 38.68 10.7148 37.3514 9.88872C36.0228 9.06267 34.494 8.61496 32.9297 8.59384C30.6365 8.58342 28.4325 9.48176 26.8 11.0923C25.1675 12.7028 24.2394 14.8944 24.2188 17.1876V19.3751C15.6055 17.5392 8.43754 10.4493 8.35942 10.3907C8.26139 10.2864 8.13595 10.2118 7.99748 10.1755C7.85901 10.1392 7.71311 10.1427 7.57652 10.1855C7.43992 10.2283 7.31816 10.3087 7.22518 10.4176C7.1322 10.5264 7.07177 10.6593 7.05082 10.8009C5.37113 19.9415 8.10551 26.0548 10.7032 29.5704C12.1583 31.5681 13.9732 33.277 16.0547 34.6095C12.9883 38.5938 7.5977 40.6446 7.5391 40.6837C7.42936 40.7247 7.33024 40.7899 7.2491 40.8744C7.16796 40.9589 7.10687 41.0606 7.07035 41.172C7.03332 41.2825 7.02286 41.4003 7.03982 41.5157C7.05679 41.631 7.10071 41.7408 7.16801 41.836C7.20707 41.9142 7.71488 42.6173 9.02348 43.2813C10.6836 44.1017 12.9102 44.5313 15.625 44.5313C29.0821 44.5313 40.3321 34.0821 41.3282 20.7032L47.4219 14.6095C47.5346 14.5049 47.612 14.368 47.6435 14.2175C47.675 14.0671 47.659 13.9106 47.5977 13.7696ZM40.0196 19.8048C39.8844 19.9414 39.8014 20.1211 39.7852 20.3126C38.9844 33.0274 28.3594 42.9688 15.625 42.9688C12.1485 42.9688 10.2344 42.2071 9.27738 41.6212C11.3086 40.6837 15.4297 38.4376 17.8321 34.8048C17.898 34.7164 17.9428 34.6142 17.9631 34.5059C17.9834 34.3975 17.9787 34.286 17.9493 34.1798C17.9193 34.0716 17.8674 33.9707 17.7969 33.8833C17.7263 33.796 17.6386 33.724 17.5391 33.672C17.5 33.6524 14.5508 32.1485 11.9532 28.6329C8.71098 24.2188 7.50004 18.8087 8.35942 12.5001C10.8594 14.7071 17.3047 19.8243 24.8633 21.0743C24.9757 21.0946 25.0911 21.0911 25.2021 21.0642C25.3131 21.0373 25.4172 20.9875 25.5079 20.9181C25.5941 20.8426 25.6631 20.7495 25.7103 20.645C25.7575 20.5406 25.7817 20.4272 25.7813 20.3126V17.1876C25.8019 15.3123 26.5627 13.521 27.8979 12.2041C29.2332 10.8871 31.0348 10.1511 32.9102 10.1563C34.2613 10.1774 35.5778 10.5862 36.7032 11.3341C37.8285 12.082 38.7153 13.1376 39.2579 14.3751C39.3169 14.517 39.4176 14.6378 39.5466 14.7214C39.6755 14.8051 39.8268 14.8478 39.9805 14.8438H44.9805L40.0196 19.8048Z" fill="white"/>
</svg>
